<svg width="580" height="400" xmlns="http://www.w3.org/2000/svg">
 <!-- Created with Method Draw - http://github.com/duopixel/Method-Draw/ -->

 <g>
  <title>background</title>
  <rect fill="#fff" id="canvas_background" height="402" width="582" y="-1" x="-1"/>
  <g display="none" overflow="visible" y="0" x="0" height="100%" width="100%" id="canvasGrid">
   <rect fill="url(#gridpattern)" stroke-width="0" y="0" x="0" height="100%" width="100%"/>
  </g>
 </g>
 <g>
  <title>Layer 1</title>
  <g stroke="null" id="svg_60">
   <ellipse stroke="null" transform="matrix(0.5368720789843218,0,0,0.6812357058498788,-9819.20089477161,-8645.080223603116) " id="svg_5" fill="#f2f2f2" ry="34.9216" rx="527.5" cy="13241.071161" cx="18833.51254"/>
   <path stroke="null" id="svg_6" fill="#2f2e41" d="m281.131781,114.774052c-46.140972,0 -79.269699,37.562914 -79.269699,125.209699c0,99.333022 33.128717,125.627065 79.269699,125.627065s81.243241,-28.798231 81.243241,-125.627065c-0.000027,-103.506681 -35.10227,-125.209699 -81.243241,-125.209699zm0.303306,217.864881c-31.958309,0 -48.654526,-23.790713 -48.654526,-92.591037c0,-60.706174 17.379671,-92.71932 49.338007,-92.71932s49.338007,21.028207 49.338007,92.71932c-0.000048,67.065857 -18.063179,92.591037 -50.021488,92.591037z"/>
   <path stroke="null" id="svg_7" fill="#2879fe" d="m174.232829,296.328116l-19.077379,0l0,-71.284082a11.250611,14.275873 0 0 0 -11.2506,-14.27586l-4.470201,0a11.250611,14.275873 0 0 0 -11.250616,14.275873l0,71.284068l-53.810731,0a6.422746,8.149807 0 0 1 -5.678834,-11.957049l56.952679,-136.778737a11.250611,14.275873 0 0 0 -5.143439,-19.577944l-3.362059,-2.01455a11.250611,14.275873 0 0 0 -14.726025,6.178842l-69.461299,164.881215a15.255639,19.357844 0 0 0 -1.801657,9.125915l0,0a15.255666,19.357878 0 0 0 15.255671,19.357878l81.775695,0l0,45.075507a13.48569,17.11196 0 0 0 13.48569,17.11196l0.000027,0a13.48569,17.11196 0 0 0 13.48569,-17.11196l0,-45.07548l19.077363,0a11.512186,14.607785 0 0 0 11.512186,-14.607785l0,0a11.512186,14.607785 0 0 0 -11.512159,-14.607812z"/>
   <path stroke="null" id="svg_8" fill="#2879fe" d="m527.492789,296.328116l-19.077363,0l0,-71.284082a11.250611,14.275873 0 0 0 -11.250616,-14.27586l-4.470201,0a11.250611,14.275873 0 0 0 -11.250616,14.275873l0,71.284068l-53.810731,0a6.42274,8.1498 0 0 1 -5.678834,-11.957049l56.952673,-136.778709a11.250616,14.27588 0 0 0 -5.143433,-19.577972l-3.362059,-2.01455a11.250616,14.27588 0 0 0 -14.726031,6.178842l-69.461293,164.881215a15.255639,19.357844 0 0 0 -1.801657,9.125915l0,0a15.255666,19.357878 0 0 0 15.255666,19.357878l81.7757,0l0,45.075507a13.48569,17.11196 0 0 0 13.48569,17.11196l0,0a13.48569,17.11196 0 0 0 13.48569,-17.11196l0,-45.07548l19.077363,0a11.512186,14.607785 0 0 0 11.512186,-14.607785l0,0a11.512186,14.607785 0 0 0 -11.512132,-14.607812z"/>
   <path stroke="#3f3d56" id="svg_9" stroke-miterlimit="10" fill="none" d="m179.49555,287.980791l-19.077368,0l0,-71.284068a11.250611,14.275873 0 0 0 -11.250611,-14.27588l-4.470201,0a11.250616,14.27588 0 0 0 -11.250616,14.27588l0,71.284068l-53.810731,0a6.422746,8.149807 0 0 1 -5.678834,-11.957049l56.952673,-136.778696a11.250616,14.27588 0 0 0 -5.143433,-19.577985l-3.362059,-2.01455a11.250616,14.27588 0 0 0 -14.726031,6.178808l-69.461293,164.881256a15.25566,19.357871 0 0 0 -1.801657,9.125922l0,0a15.255666,19.357878 0 0 0 15.255666,19.357878l81.7757,0l0,45.075507a13.48569,17.11196 0 0 0 13.48569,17.11196l0.000027,0a13.48569,17.11196 0 0 0 13.48569,-17.11196l0,-45.07548l19.077368,0a11.512186,14.607785 0 0 0 11.512186,-14.607785l0,0a11.512186,14.607785 0 0 0 -11.512164,-14.607826z"/>
   <path stroke="#3f3d56" id="svg_10" stroke-miterlimit="10" fill="none" d="m537.360385,287.980791l-19.077363,0l0,-71.284068a11.250616,14.27588 0 0 0 -11.250616,-14.27588l-4.470201,0a11.250616,14.27588 0 0 0 -11.250616,14.27588l0,71.284068l-53.810731,0a6.422746,8.149807 0 0 1 -5.678834,-11.957049l56.952673,-136.778696a11.250616,14.27588 0 0 0 -5.143433,-19.577985l-3.362059,-2.01455a11.250616,14.27588 0 0 0 -14.726031,6.178808l-69.461293,164.881256a15.25566,19.357871 0 0 0 -1.801657,9.125922l0,0a15.255666,19.357878 0 0 0 15.255666,19.357878l81.7757,0l0,45.075507a13.48569,17.11196 0 0 0 13.48569,17.11196l0,0a13.48569,17.11196 0 0 0 13.48569,-17.11196l0,-45.07548l19.077363,0a11.512186,14.607785 0 0 0 11.512186,-14.607785l0,0a11.512186,14.607785 0 0 0 -11.512132,-14.607826z"/>
   <path stroke="#3f3d56" id="svg_11" stroke-miterlimit="10" fill="none" d="m291.657217,107.261473c-46.140972,0 -79.269699,37.562908 -79.269699,125.209699c0,99.333022 33.128717,125.627065 79.269699,125.627065s81.243241,-28.798231 81.243241,-125.627065c-0.000027,-103.506687 -35.10227,-125.209699 -81.243241,-125.209699zm0.303333,217.864874c-31.958309,0 -48.654526,-23.790706 -48.654526,-92.59103c0,-60.706174 17.379671,-92.71932 49.338007,-92.71932s49.338007,21.028207 49.338007,92.71932c-0.000075,67.06585 -18.063206,92.59103 -50.021515,92.59103l0.000027,0z"/>
   <path stroke="null" id="svg_31" fill="#57b894" d="m542.286825,286.813249a11.173661,14.178232 0 1 0 1.487995,-27.191687l0.279673,7.297533l-2.720943,-6.25405a11.131506,14.124741 0 0 0 -5.735764,7.98586a10.956738,13.902978 0 0 0 -0.642706,3.835262a11.171535,14.175534 0 0 0 7.331745,14.327082z"/>
   <path stroke="#3f3d56" id="svg_32" stroke-miterlimit="10" fill="none" d="m555.750154,371.452303c-0.960496,-6.206241 3.201529,-11.708262 7.312659,-15.284552s8.914761,-7.090158 10.317473,-13.159321c2.015955,-8.722453 -3.98896,-16.710582 -8.662775,-23.599204a67.270308,85.359134 0 0 1 -8.871054,-16.729364c-0.972313,-2.406465 -1.865942,-4.922119 -2.121831,-7.606855c-0.368514,-3.866326 0.610386,-7.713693 1.596604,-11.401658q4.928083,-18.428577 10.537956,-36.54833"/>
   <path stroke="#3f3d56" id="svg_33" stroke-miterlimit="10" fill="none" d="m542.746989,284.934442a11.173661,14.178232 0 1 0 1.487995,-27.191687l0.279673,7.297533l-2.720948,-6.25405a11.131506,14.124741 0 0 0 -5.735759,7.98586a10.956738,13.902978 0 0 0 -0.642706,3.835262a11.171529,14.175527 0 0 0 7.331745,14.327082z"/>
   <path stroke="null" id="svg_34" fill="#57b894" d="m554.384459,244.602876a11.160599,14.161657 0 0 1 8.042306,-8.990704l0.919989,6.937555l1.705643,-7.286265a11.172308,14.176515 0 1 1 -10.667954,9.339415l0.000016,0z"/>
   <path stroke="#3f3d56" id="svg_35" stroke-miterlimit="10" fill="none" d="m554.998007,242.097795a11.160604,14.161664 0 0 1 8.042306,-8.990697l0.919989,6.937555l1.705643,-7.286272a11.172308,14.176515 0 1 1 -10.667954,9.339415l0.000016,0z"/>
   <path stroke="null" id="svg_36" fill="#57b894" d="m562.75611,319.549833a11.172308,14.176515 0 0 0 9.888647,-25.221165l-1.310617,5.599253l-0.929352,-7.01933a0.194256,0.246492 0 0 0 -0.028454,-0.013693a11.172915,14.177285 0 1 0 -7.620255,26.654934l0.000032,0z"/>
   <path stroke="#3f3d56" id="svg_37" stroke-miterlimit="10" fill="none" d="m563.287752,317.012448a11.172308,14.176515 0 0 0 9.888647,-25.221165l-1.310617,5.599253l-0.929352,-7.01933a0.194401,0.246675 0 0 0 -0.028454,-0.013693a11.172915,14.177285 0 1 0 -7.620255,26.654934l0.000032,0z"/>
   <path stroke="null" id="svg_38" fill="#57b894" d="m551.123745,343.095131a11.167643,14.170595 0 1 0 2.153168,-11.10235l4.978238,9.507693l-6.802137,-5.046376a11.068359,14.044614 0 0 0 -0.329269,6.641033z"/>
   <path stroke="#3f3d56" id="svg_39" stroke-miterlimit="10" fill="none" d="m551.583909,341.216324a11.167643,14.170595 0 1 0 2.153168,-11.10235l4.978238,9.5077l-6.802137,-5.046383a11.068294,14.044532 0 0 0 -0.329269,6.641033z"/>
   <path stroke="null" id="svg_40" fill="#57b894" d="m6.565612,321.351293a7.341302,9.31536 0 1 0 0.977644,-17.865406l0.183755,4.794612l-1.787714,-4.109023a7.31361,9.280222 0 0 0 -3.768498,5.246877a7.198826,9.134574 0 0 0 -0.422271,2.519843a7.3399,9.313582 0 0 0 4.817085,9.413097z"/>
   <path stroke="#3f3d56" id="svg_41" stroke-miterlimit="10" fill="none" d="m15.411267,376.960693c-0.631066,-4.077611 2.103465,-7.692514 4.804549,-10.042232s5.857156,-4.658358 6.778772,-8.64591c1.324522,-5.730814 -2.620832,-10.979156 -5.691606,-15.505109a44.197683,56.082334 0 0 1 -5.828439,-10.9915a11.923725,15.129986 0 0 1 -1.394085,-4.997838c-0.242129,-2.540246 0.401043,-5.068033 1.049,-7.491099q3.237838,-12.107916 6.923626,-24.012918"/>
   <path stroke="#3f3d56" id="svg_42" stroke-miterlimit="10" fill="none" d="m6.867952,320.11688a7.341296,9.315353 0 1 0 0.977644,-17.865406l0.183755,4.794619l-1.78772,-4.109057a7.313604,9.280215 0 0 0 -3.768498,5.246877a7.198982,9.134771 0 0 0 -0.422271,2.519836a7.33989,9.313568 0 0 0 4.81709,9.413131z"/>
   <path stroke="null" id="svg_43" fill="#57b894" d="m14.513976,293.61831a7.332717,9.304467 0 0 1 5.283943,-5.907056l0.604448,4.5581l1.120651,-4.787214a7.340394,9.314209 0 1 1 -7.009042,6.136169z"/>
   <path stroke="#3f3d56" id="svg_44" stroke-miterlimit="10" fill="none" d="m14.917092,291.972424a7.332717,9.304467 0 0 1 5.283943,-5.907049l0.604448,4.5581l1.120651,-4.787214a7.340394,9.314209 0 1 1 -7.009042,6.136162z"/>
   <path stroke="null" id="svg_45" fill="#57b894" d="m20.014306,342.859825a7.34041,9.314229 0 0 0 6.497033,-16.570766l-0.8611,3.678809l-0.610601,-4.611823a0.127776,0.162134 0 0 0 -0.018683,-0.008992a7.340808,9.314733 0 1 0 -5.006649,17.512772z"/>
   <path stroke="#3f3d56" id="svg_46" stroke-miterlimit="10" fill="none" d="m20.36359,341.192719a7.34041,9.314229 0 0 0 6.497033,-16.570766l-0.8611,3.678809l-0.610601,-4.611829a0.127776,0.162134 0 0 0 -0.018683,-0.008992a7.340808,9.314733 0 1 0 -5.006649,17.512778z"/>
   <path stroke="null" id="svg_47" fill="#57b894" d="m12.371637,358.329516a7.337345,9.310339 0 1 0 1.414658,-7.294447l3.270791,6.246734l-4.469127,-3.315574a7.27212,9.227576 0 0 0 -0.216322,4.363287z"/>
   <path stroke="#3f3d56" id="svg_48" stroke-miterlimit="10" fill="none" d="m12.673966,357.095104a7.337345,9.310339 0 1 0 1.414658,-7.294447l3.270791,6.246734l-4.469133,-3.315574a7.27212,9.227576 0 0 0 -0.216316,4.363287z"/>
   <ellipse stroke="null" transform="matrix(0.5368720789843218,0,0,0.6812357058498788,-9819.20089477161,-8645.080223603116) " id="svg_49" fill="#2f2e41" ry="22" rx="17" cy="13010.877261" cx="18773.81508"/>
   <ellipse stroke="null" transform="matrix(0.5368720789843218,0,0,0.6812357058498788,-9819.20089477161,-8645.080223603116) " id="svg_50" fill="#2f2e41" ry="22" rx="17" cy="13011.377261" cx="18866.31508"/>
   <path stroke="null" id="svg_51" fill="#2f2e41" d="m302.617568,263.014865c0,6.771483 -7.451784,12.262243 -16.643034,12.262243s-16.643034,-5.49076 -16.643034,-12.262243c0,-5.865439 5.588838,-10.770337 13.056729,-11.969311a26.899186,34.132314 0 0 1 3.586305,-0.292931a27.218711,34.537758 0 0 1 5.975386,0.817483c6.238454,1.7644 10.667648,6.226494 10.667648,11.44476z"/>
   <ellipse stroke="#3f3d56" transform="matrix(0.5368720789843218,0,0,0.6812357058498788,-9819.20089477161,-8645.080223603116) " id="svg_52" stroke-miterlimit="10" fill="none" ry="22" rx="17" cy="13005.877261" cx="18777.81508"/>
   <ellipse stroke="#3f3d56" transform="matrix(0.5368720789843218,0,0,0.6812357058498788,-9819.20089477161,-8645.080223603116) " id="svg_53" stroke-miterlimit="10" fill="none" ry="22" rx="17" cy="13006.377261" cx="18870.31508"/>
   <ellipse stroke="#3f3d56" transform="matrix(0.5368720789843218,0,0,0.6812357058498788,-9819.20089477161,-8645.080223603116) " id="svg_54" stroke-miterlimit="10" fill="none" ry="18" rx="31" cy="13071.377261" cx="18826.31508"/>
   <path stroke="null" id="svg_55" fill="#fff" d="m292.148562,252.591959a2.650312,3.362975 0 0 1 -0.708671,2.310752a2.329343,2.955698 0 0 1 -1.707253,0.95918l-5.368721,0a2.504149,3.177508 0 0 1 -2.415924,-3.269931a2.633132,3.341175 0 0 1 0.440235,-1.867499a25.243725,32.031703 0 0 1 3.586305,-0.312456a25.589761,32.470787 0 0 1 5.975386,0.871982a2.720095,3.451522 0 0 1 0.198643,1.307973z"/>
   <circle stroke="null" transform="matrix(0.5368720789843218,0,0,0.6812357058498788,-9819.20089477161,-8645.080223603116) " id="svg_56" fill="#fff" r="5" cy="12999.877261" cx="18777.81508"/>
   <circle stroke="null" transform="matrix(0.5368720789843218,0,0,0.6812357058498788,-9819.20089477161,-8645.080223603116) " id="svg_57" fill="#fff" r="5" cy="12999.877261" cx="18870.81508"/>
   <circle stroke="null" transform="matrix(0.5368720789843218,0,0,0.6812357058498788,-9819.20089477161,-8645.080223603116) " id="svg_58" opacity="0.3" fill="#2879fe" r="5" cy="13046.877261" cx="18875.81508"/>
   <circle stroke="null" transform="matrix(0.5368720789843218,0,0,0.6812357058498788,-9819.20089477161,-8645.080223603116) " id="svg_59" opacity="0.3" fill="#2879fe" r="5" cy="13046.877261" cx="18753.81508"/>
  </g>
 </g>
</svg>