<svg height="480pt" viewBox="0 -11 480 479" width="480pt" xmlns="http://www.w3.org/2000/svg"><g fill="#9bc9ff"><path d="m144 278.101562c50.398438-10.082031 88-51.441406 88-100.960937v-8.640625h-32v8.921875c-.636719 31.285156-21.515625 58.53125-51.558594 67.277344-7.75 2.53125-15.851562 3.8125-24 3.800781h-.441406c-8.296875.019531-16.542969-1.261719-24.441406-3.800781-30.027344-8.769531-50.894532-36.003907-51.558594-67.277344v-8.921875h-40v8.640625c0 49.519531 37.601562 90.878906 88 100.960937 15.839844 3.199219 32.160156 3.199219 48 0zm0 0"/><path d="m144 304.5v-26.398438c-15.839844 3.199219-32.160156 3.199219-48 0v26.398438c0 16.800781 7.199219 24 16 24h16c8.800781 0 16-7.199219 16-24zm0 0"/><path d="m424 216.5c-26.507812 0-48 21.492188-48 48 0 26.511719 21.492188 48 48 48s48-21.488281 48-48c0-26.507812-21.492188-48-48-48zm0 64c-8.835938 0-16-7.164062-16-16s7.164062-16 16-16 16 7.164062 16 16-7.164062 16-16 16zm0 0"/><path d="m88 24.5c0 8.835938-7.164062 16-16 16s-16-7.164062-16-16 7.164062-16 16-16 16 7.164062 16 16zm0 0"/><path d="m184 24.5c-.011719-8.832031-7.175781-15.984375-16.011719-15.980469-8.832031.007813-15.988281 7.167969-15.988281 16s7.15625 15.996094 15.988281 16c8.835938.007813 16-7.144531 16.011719-15.980469-.128906-.039062-.238281-.039062-.359375-.039062zm0 0"/><path d="m183.640625 24.5c.121094 0 .230469 0 .359375.039062v-.039062zm0 0"/><path d="m440 264.5c0 8.835938-7.164062 16-16 16s-16-7.164062-16-16 7.164062-16 16-16 16 7.164062 16 16zm0 0"/></g><path d="m432 209.140625v-14.542969c0-40.128906-30.503906-72.800781-68-72.800781-36.414062 0-66.902344 31.679687-68 70.625h.464844l-.464844.078125v157.65625c0 50.402344-37.679688 91.328125-84 91.328125s-84-40.984375-84-91.328125v-13.65625c11.601562 0 24-8.40625 24-32v-20.121094c51.34375-13.125 88-57.214844 88-107.199218v-16.679688h-16l-.335938-104.121094c-.117187-19.273437-13.945312-35.726562-32.910156-39.160156-3.597656-11.011719-14.582031-17.855469-26.050781-16.222656-11.472656 1.628906-20.117187 11.257812-20.503906 22.835937-.386719 11.582031 7.597656 21.765625 18.933593 24.15625 11.339844 2.390625 22.753907-3.707031 27.074219-14.457031 10.25 2.917969 17.347657 12.242188 17.433594 22.898438l.359375 104.070312h-16v16.914062c-.636719 27.824219-19.292969 52.007813-46.046875 59.6875-14.316406 4.539063-29.6875 4.539063-44 0-26.722656-7.707031-45.335937-31.882812-45.953125-59.6875v-16.914062h-24v-104c.046875-10.8125 7.316406-20.261719 17.761719-23.070312 4.285156 10.914062 15.800781 17.160156 27.289062 14.800781 11.484375-2.355469 19.609375-12.632813 19.253907-24.355469-.359376-11.71875-9.097657-21.480469-20.703126-23.132812-11.609374-1.652344-22.722656 5.285156-26.335937 16.4375-19.175781 3.277343-33.210937 19.871093-33.265625 39.320312v104h-16v16.640625c0 50.039063 36.679688 94.144531 88 107.238281v20.121094c0 23.59375 12.398438 32 24 32v13.65625c0 59.199219 44.855469 107.328125 100 107.328125s100-48.183594 100-107.328125v-157.273438c.800781-30.359374 24.144531-55.0625 52-55.0625 28.671875 0 52 25.472657 52 56.800782v14.519531c-29.070312 4.195313-49.960938 30.140625-47.855469 59.4375 2.101563 29.292969 26.484375 51.988281 55.855469 51.988281s53.753906-22.695312 55.855469-51.988281c2.105469-29.296875-18.785157-55.242187-47.855469-59.4375zm-264-176.640625c-4.417969 0-8-3.582031-8-8s3.582031-8 8-8 8 3.582031 8 8-3.582031 8-8 8zm-96-16c4.417969 0 8 3.582031 8 8s-3.582031 8-8 8-8-3.582031-8-8 3.582031-8 8-8zm-56 160.640625v-.640625h24v.914062c.601562 34.769532 23.734375 65.113282 57.105469 74.902344 17.484375 5.535156 36.253906 5.535156 53.742187 0 33.386719-9.773437 56.542969-40.121094 57.152344-74.902344v-.914062h16v.640625c0 44.503906-34.304688 83.664063-81.601562 93.136719-11.105469 2.222656-22.480469 2.78125-33.75 1.65625-3.710938-.359375-7.398438-.917969-11.046876-1.671875-47.296874-9.457031-81.601562-48.617188-81.601562-93.121094zm88 127.359375v-16.976562c.640625.082031 1.296875.113281 1.945312.175781.796876.089843 1.597657.152343 2.398438.226562 3.785156.335938 7.601562.558594 11.449219.566407h.398437c3.839844 0 7.648438-.230469 11.410156-.566407.796876-.074219 1.644532-.136719 2.46875-.226562.632813-.070313 1.289063-.09375 1.921876-.175781v16.976562c0 4.800781-.800782 16-8 16h-15.992188c-7.199219 0-8-11.199219-8-16zm320 0c-22.089844 0-40-17.90625-40-40 0-22.089844 17.910156-40 40-40s40 17.910156 40 40c-.027344 22.082031-17.917969 39.972656-40 40zm0 0" fill="#1e81ce"/><path d="m424 288.5c-13.253906 0-24-10.746094-24-24s10.746094-24 24-24 24 10.746094 24 24-10.746094 24-24 24zm0-32c-4.417969 0-8 3.582031-8 8s3.582031 8 8 8 8-3.582031 8-8-3.582031-8-8-8zm0 0" fill="#1e81ce"/></svg>