<svg height="444pt" viewBox="0 -15 444.54728 444" width="444pt" xmlns="http://www.w3.org/2000/svg"><g fill="#9bc9ff"><path d="m240.898438 142.40625-67.878907 67.878906 192.335938 192.335938 50.910156-50.910156 16.96875-16.976563zm0 0"/><path d="m223.929688 159.375-33.941407 33.941406zm0 0"/><path d="m87.089844 135.671875c.351562.367187.730468.707031 1.136718 1.015625 6.941407 5.875 17.230469 5.433594 23.640626-1.015625l10.238281-10.242187 33.96875-33.9375 10.242187-10.238282c3.292969-3.285156 5.140625-7.746094 5.140625-12.398437 0-4.652344-1.847656-9.113281-5.140625-12.402344l-43.136718-43.054687c-3.285157-3.296876-7.746094-5.148438-12.402344-5.148438-4.652344 0-9.113282 1.851562-12.398438 5.148438l-54.398437 54.398437c-6.453125 6.414063-6.894531 16.707031-1.015625 23.648437.304687.40625.644531.78125 1.015625 1.128907zm0 0"/><path d="m122.105469 125.429688 33.945312-33.9375zm0 0"/><path d="m82.476562 142.40625 5.71875-5.71875c-.40625-.308594-.785156-.648438-1.136718-1.015625l-43.070313-43.074219c-.371093-.347656-.710937-.722656-1.015625-1.128906l-5.722656 5.714844c-11.714844 12.609375-11.351562 32.230468.820312 44.402344 12.171876 12.171874 31.792969 12.535156 44.40625.820312zm0 0"/></g><path d="m240.875 131.085938-16.976562 16.976562-56.566407-56.570312 4.582031-4.582032c9.921876-9.984375 9.921876-26.105468 0-36.089844l-43.039062-43.101562c-9.984375-9.925781-26.109375-9.925781-36.097656 0l-54.398438 54.398438c-7.355468 7.378906-9.53125 18.46875-5.503906 28.082031l-1.304688 1.3125c-13.46875 13.421875-15.59375 34.488281-5.078124 50.335937l-24.152344 24.160156c-3.125 3.128907-3.117188 8.199219.011718 11.320313 3.128907 3.125 8.199219 3.121094 11.324219-.011719l24.175781-24.175781c15.855469 10.480469 36.894532 8.359375 50.335938-5.078125l1.375-1.367188c9.550781 4.136719 20.660156 2.007813 28-5.371093l4.585938-4.582031 56.566406 56.574218-17.039063 16.96875 203.671875 203.640625 79.199219-79.199219zm-197.992188 5.65625c-4.511718-4.496094-7.046874-10.601563-7.046874-16.96875 0-6.367188 2.535156-12.472657 7.046874-16.96875l33.992188 33.9375c-9.496094 9.089843-24.464844 9.089843-33.960938 0zm50.496094-6.144532c-.167968-.144531-.480468-.457031-.664062-.582031l-43.144532-43.144531-.542968-.625c-3.148438-3.773438-2.894532-9.328125.582031-12.800782l54.402344-54.398437c3.722656-3.710937 9.746093-3.710937 13.472656 0l43.101563 43.101563c3.707031 3.726562 3.707031 9.742187 0 13.464843l-54.398438 54.402344c-3.46875 3.460937-9.003906 3.714844-12.777344.582031zm40-5.167968 22.695313-22.625 56.578125 56.570312-22.632813 22.632812zm50.914063 84.855468 56.582031-56.566406 181.046875 181.015625-5.65625 5.664063-158.398437-158.402344-11.304688 11.320312 158.402344 158.402344-39.609375 39.589844zm0 0" fill="#1e81ce"/></svg>